<svg id="Layer_2" data-name="Layer 2" xmlns="http://www.w3.org/2000/svg" viewBox="0 0 944.95 948.52"><title>earth</title><circle id="Earth" cx="472.48" cy="476.04" r="472.48" fill="#294e75"/><path id="Landmass_Shadow" data-name="Landmass Shadow" d="M1569.1,816c4.44,17.47-3.51,35.54-12.3,51.28A405.24,405.24,0,0,1,1514,929.56c-15.46,18.49-33.43,37.45-35.87,61.43-1.42,13.93,2.72,27.78,3.6,41.76s-2.71,29.91-14.75,37.06c-9.66,5.73-24.42,6.06-28,16.71-1.26,3.76-.6,7.88-1.26,11.78-1.26,7.48-7.08,13.24-12.59,18.45-18.86,17.82-38.63,36.19-63.4,43.93a86.86,86.86,0,0,1-68.88-7.85c-20.15-11.8-34.58-31.25-46.95-51.06-2.59-4.15-5.19-8.55-5.57-13.43-0.41-5.28,1.81-10.36,3.38-15.42,7.82-25.26-1.9-55-23.14-70.69-7-5.2-15.56-9.51-18.88-17.59-3.23-7.85-.45-16.69.87-25.08s0.12-18.75-7.47-22.55c-9.06-4.53-21,3.54-29.77-1.44-4.13-2.33-6.36-6.94-9.76-10.24-10.14-9.8-26.54-5.65-40.43-3.22-43.09,7.53-89.67-10.38-116.62-44.84-11.24-14.37-19.08-31-26.82-47.55-2.42-5.16-4.9-10.75-3.87-16.36,1.32-7.2,8-12.12,11.22-18.67,5-10,1.51-21.81,1.26-32.93-0.64-27.84,19.47-52.09,42.15-68.26,5.91-4.22,12.19-8.2,16.59-14,3.65-4.79,5.78-10.54,8.52-15.9,7.77-15.16,25-26.65,35.66-30.83s83.29-10.93,125.92-9.75c-5.21,10.74-9.76,25.32-.76,33.15,5.75,5,14.34,4.39,21.57,6.8,10,3.32,16.88,12.19,25.41,18.31s22,8.78,28.49.54c5.61-7.09,4.93-20.52,13.86-21.86,3.45-.52,6.75,1.36,9.87,2.95a70.23,70.23,0,0,0,58.17,2.17c4.38-1.83,9.24-4.16,13.65-2.39,2.92,1.17,4.87,3.89,6.66,6.48,24.92,36,49.88,72.1,71.61,110.14,3.12,5.46,6.2,11,10.2,15.85,4.49,5.45,10,9.92,15.54,14.34,13.13,10.56,27.58,21.63,44.43,22.05C1542.72,832,1556.38,823.88,1569.1,816Zm165.41-206.7c-24.1-109.82-90.26-209.86-181.87-275-24.33-17.31-52.35-32.74-82.16-31.06-31.67,1.79-59.48,22.56-90.92,26.84-2.47.34-5.08,0.61-7.11,2.06-4.93,3.51-3.9,11.76-8.5,15.7-2.71,2.32-6.63,2.47-9.87,4-11.37,5.18-12,24.67-24.26,27.1-2.88-1.46-2.52-5.55-2.72-8.77-0.81-13.27-17.05-19.74-30.34-19.29-24.36.82-46.67,13.95-65.52,29.41-9.92,8.14-20.11,19.63-17.24,32.14,1.46,6.35,6.07,11.43,9.13,17.18,5.91,11.1,5.32,26.12-3.53,35a36.6,36.6,0,0,1-.8-23.33c-3.89-3-9.66,1.44-10.45,6.27s1.25,9.62,1.76,14.48-0.47,12.6-5.3,13.33c-11.12-4.36-23.13,3.46-31.75,11.73s-17.71,18.06-29.64,18.55c-3.16.13-6.75-.29-9,1.89-1.7,1.61-.69,4.93,1,5.75L1120.07,515a54.15,54.15,0,0,1,9.17,48.08,112.52,112.52,0,0,0-45.34-9.13c1.78,10.94-5.63,21-12,30s-12.32,20.71-7.6,30.73l9.78,3.24c13.48,4.47,29.3,8.67,41,.64s14.1-24.9,25.31-33.47c3.47-2.65,7.74-4.47,10.27-8,2.91-4.08,3.25-10.08,7.41-12.88,5.33-3.58,12.42.72,18.82,0.23,5.13-.39,9.42-3.85,14-6.13s11-3.09,14.26.87c3.45,4.15,1.23,10.57,3.11,15.62,2.64,7.09,11.67,8.72,19.11,10,10.4,1.85,22.92,9,20.57,19.31-2.08,9.14-14.14,11.43-23.43,10.18a16.69,16.69,0,0,0,18.93,10.84c-2.25-4,.45-9,3.9-12s7.79-5.18,10.21-9.07,1.34-10.42-3.18-11.16l15.42,1.49-37.63-28c-6.25-4.65-13.08-13.18-8-19.08,27.3,3.29,51.32,25.31,57,52.22,1.15,5.48,1.73,11.41,5.24,15.78,5,6.15,15.33,6.72,21,1.26s5.68-15.7.07-21.26c-1.53-1.51-3.47-2.84-4.06-4.91-1.21-4.27,3.93-7.44,8.21-8.6a81.53,81.53,0,0,1,33.44-1.91l-18.69,3.8c2,9.5,4.2,19.34,10,27.12s16.39,12.92,25.46,9.42c4-1.53,7.71-4.62,11.92-4,3.24,0.47,5.88,3.09,9.14,3.46,6.23,0.69,11.86-7,17.66-4.65,3.36,1.38,4.59,5.46,5,9.06a57.14,57.14,0,0,1-17.46,48.21c15.44,14.21,30.63,28.69,45.81,43.16,9.53,9.08,19.23,18.39,25.26,30.09,5,9.73,8.13,21.75,17.84,26.8,5.61,2.92,12.79,3,17.27,7.47,8.66,8.63.1,25.19,7.49,34.94,6.93,9.15,21.9,4.92,30.4-2.8,17.77-16.15,24.58-42.74,44.64-55.93,4.55-3,9.75-5.26,13.2-9.48,7.07-8.64,4.12-21.54,7.36-32.22,1.95-6.42,6.25-12.71,4.76-19.25-3.06-13.41-25.69-12.85-30.43-25.76a25,25,0,0,0-3.42,15.45c-4.89,7.63-15.67,9.59-24.34,6.94s-15.72-8.86-22.47-14.9c-8.28-7.4-17-20-9.42-28.16,6.73-7.21,18.64-2,26.81,3.54l21.19,14.33c1.23,0.83,3.29-.11,4.38-1.11s1.28-.16,2.34-1.2a48.86,48.86,0,0,0,6.61-9c3.88,10.51,19,11.34,29.07,6.45s18.43-13.46,29.31-16.15,25.44,5.64,22.39,16.42c5.94,6.22,18.14,3.83,21.29-4.18,7.13,17.12,8.17,36.06,12.27,54.15s12.5,36.8,28.86,45.53c6.17-9.3,5.44-21.37,4.77-32.5A647.88,647.88,0,0,1,1726,600Zm-792.89,423.8-23.69-17.93c-3.18-2.41-6.4-4.85-8.84-8-7.2-9.25-6.67-23.06-14.59-31.7-1.8-2-4-3.62-5.25-6a17.89,17.89,0,0,1-1.55-6.81l-2.17-23.51c-0.54-5.82-1.17-11.92-4.47-16.74-2.82-4.12-7.26-6.81-10.69-10.44-6.37-6.73-8.86-16.23-14.19-23.8-6-8.58-15.68-14.65-19.71-24.34-2.3-5.54-2.55-11.84-5.37-17.13-2.13-4-5.63-7.22-7.34-11.42-2.1-5.15-1.19-11-1.06-16.52,0,0-2.09-27.61-8.08-22.22-3.29,13.27.85,27.12,4.95,40.16l15,47.78c3.65,11.6,7.31,23.24,12.38,34.29a291.94,291.94,0,0,0,14,25.84c10.81,18.43,21.65,36.9,34.46,54,3.33,4.44,6.79,8.79,10.33,13.07,14.11,17.06,30,33.5,50.3,42.44C956.51,1045.32,948.71,1038.5,941.63,1033.14ZM1558,1009a3.84,3.84,0,0,0-3-.19c-8.82,2.13-11.14,12.12-16.73,19.27l-0.82,1c-5.05,4.41-11.11,7.49-16.55,11.4s-10.48,9.06-12,15.58c-1.12,4.77-.27,9.9-1.75,14.57s-5.18,8.4-8.48,12.1a9.36,9.36,0,0,0-2.63,4.46c-0.58,3.52,3,6.61,6.59,6.8s6.88-1.68,9.83-3.67a89.29,89.29,0,0,0,36-49.88c2.39-8.63,3.58-17.9,8.71-25.24C1558.51,1013.28,1560,1010.28,1558,1009Z" transform="translate(-802.61 -239.67)" fill="#365728"/><path id="Ice_Shadow" data-name="Ice Shadow" d="M1074,339.38a227.9,227.9,0,0,1,89.46-53.74l-46.71-5.33c4.47-6.63,12.88-9.15,20.65-11.09A771.37,771.37,0,0,1,1265,248.58c28.27-2.16,59.56-1.81,81.09,16.64-2.34,10.67-14.31,15.74-24.73,19-35.16,11-71,20.52-107.66,24.09-8.27.81-16.81,1.37-24.26,5.06-5.28,2.62-9.69,6.66-14.27,10.36a136.12,136.12,0,0,1-60.72,27.82c-12.8,2.33-26.22,2.91-37.88,8.69-8.53,4.23-15.56,11-23.91,15.55s-19.31,6.55-27,1a119.21,119.21,0,0,1,61.11-45.3m134.8-12.76a44.94,44.94,0,0,0-27.66,17.83c-1.89,2.65-3.42,6.47-1.29,8.93a7.27,7.27,0,0,0,4.52,2c10.21,1.59,20.53-1.21,30.58-3.63A432.73,432.73,0,0,1,1314,332.06c6-.21,12.21-0.33,17.67-2.85,3.23-1.49,6-3.75,9.09-5.59,16.82-10.19,38.08-6.65,57.71-5.49s42.94-2.63,51.83-20.17c-20.49-21.05-50.25-29.64-78.58-37.41-4.26-1.17-8.76-2.34-13-1.2-3.95,1.06-7.1,3.94-10.31,6.46-36.08,28.32-93.72,18.51-125.85,51.23Z" transform="translate(-802.61 -239.67)" fill="#bdbdbd"/><path id="Landmass" d="M1576.1,808c4.44,17.47-3.51,35.54-12.3,51.28A405.24,405.24,0,0,1,1521,921.56c-15.46,18.49-33.43,37.45-35.87,61.43-1.42,13.93,2.72,27.78,3.6,41.76s-2.71,29.91-14.75,37.06c-9.66,5.73-24.42,6.06-28,16.71-1.26,3.76-.6,7.88-1.26,11.78-1.26,7.48-7.08,13.24-12.59,18.45-18.86,17.82-38.63,36.19-63.4,43.93a86.86,86.86,0,0,1-68.88-7.85c-20.15-11.8-34.58-31.25-46.95-51.06-2.59-4.15-5.19-8.55-5.57-13.43-0.41-5.28,1.81-10.36,3.38-15.42,7.82-25.26-1.9-55-23.14-70.69-7-5.2-15.56-9.51-18.88-17.59-3.23-7.85-.45-16.69.87-25.08s0.12-18.75-7.47-22.55c-9.06-4.53-21,3.54-29.77-1.44-4.13-2.33-6.36-6.94-9.76-10.24-10.14-9.8-26.54-5.65-40.43-3.22-43.09,7.53-89.67-10.38-116.62-44.84-11.24-14.37-19.08-31-26.82-47.55-2.42-5.16-4.9-10.75-3.87-16.36,1.32-7.2,8-12.12,11.22-18.67,5-10,1.51-21.81,1.26-32.93-0.64-27.84,19.47-52.09,42.15-68.26,5.91-4.22,12.19-8.2,16.59-14,3.65-4.79,5.78-10.54,8.52-15.9,7.77-15.16,25-26.65,35.66-30.83s83.29-10.93,125.92-9.75c-5.21,10.74-9.76,25.32-.76,33.15,5.75,5,14.34,4.39,21.57,6.8,10,3.32,16.88,12.19,25.41,18.31s22,8.78,28.49.54c5.61-7.09,4.93-20.52,13.86-21.86,3.45-.52,6.75,1.36,9.87,2.95a70.23,70.23,0,0,0,58.17,2.17c4.38-1.83,9.24-4.16,13.65-2.39,2.92,1.17,4.87,3.89,6.66,6.48,24.92,36,49.88,72.1,71.61,110.14,3.12,5.46,6.2,11,10.2,15.85,4.49,5.45,10,9.92,15.54,14.34,13.13,10.56,27.58,21.63,44.43,22.05C1549.72,824,1563.38,815.88,1576.1,808Zm165.41-206.7c-24.1-109.82-90.26-209.86-181.87-275-24.33-17.31-52.35-32.74-82.16-31.06-31.67,1.79-59.48,22.56-90.92,26.84-2.47.34-5.08,0.61-7.11,2.06-4.93,3.51-3.9,11.76-8.5,15.7-2.71,2.32-6.63,2.47-9.87,4-11.37,5.18-12,24.67-24.26,27.1-2.88-1.46-2.52-5.55-2.72-8.77-0.81-13.27-17.05-19.74-30.34-19.29-24.36.82-46.67,13.95-65.52,29.41-9.92,8.14-20.11,19.63-17.24,32.14,1.46,6.35,6.07,11.43,9.13,17.18,5.91,11.1,5.32,26.12-3.53,35a36.6,36.6,0,0,1-.8-23.33c-3.89-3-9.66,1.44-10.45,6.27s1.25,9.62,1.76,14.48-0.47,12.6-5.3,13.33c-11.12-4.36-23.13,3.46-31.75,11.73s-17.71,18.06-29.64,18.55c-3.16.13-6.75-.29-9,1.89-1.7,1.61-.69,4.93,1,5.75L1127.07,507a54.15,54.15,0,0,1,9.17,48.08,112.52,112.52,0,0,0-45.34-9.13c1.78,10.94-5.63,21-12,30s-12.32,20.71-7.6,30.73l9.78,3.24c13.48,4.47,29.3,8.67,41,.64s14.1-24.9,25.31-33.47c3.47-2.65,7.74-4.47,10.27-8,2.91-4.08,3.25-10.08,7.41-12.88,5.33-3.58,12.42.72,18.82,0.23,5.13-.39,9.42-3.85,14-6.13s11-3.09,14.26.87c3.45,4.15,1.23,10.57,3.11,15.62,2.64,7.09,11.67,8.72,19.11,10,10.4,1.85,22.92,9,20.57,19.31-2.08,9.14-14.14,11.43-23.43,10.18a16.69,16.69,0,0,0,18.93,10.84c-2.25-4,.45-9,3.9-12s7.79-5.18,10.21-9.07,1.34-10.42-3.18-11.16l15.42,1.49-37.63-28c-6.25-4.65-13.08-13.18-8-19.08,27.3,3.29,51.32,25.31,57,52.22,1.15,5.48,1.73,11.41,5.24,15.78,5,6.15,15.33,6.72,21,1.26s5.68-15.7.07-21.26c-1.53-1.51-3.47-2.84-4.06-4.91-1.21-4.27,3.93-7.44,8.21-8.6a81.53,81.53,0,0,1,33.44-1.91l-18.69,3.8c2,9.5,4.2,19.34,10,27.12s16.39,12.92,25.46,9.42c4-1.53,7.71-4.62,11.92-4,3.24,0.47,5.88,3.09,9.14,3.46,6.23,0.69,11.86-7,17.66-4.65,3.36,1.38,4.59,5.46,5,9.06a57.14,57.14,0,0,1-17.46,48.21c15.44,14.21,30.63,28.69,45.81,43.16,9.53,9.08,19.23,18.39,25.26,30.09,5,9.73,8.13,21.75,17.84,26.8,5.61,2.92,12.79,3,17.27,7.47,8.66,8.63.1,25.19,7.49,34.94,6.93,9.15,21.9,4.92,30.4-2.8,17.77-16.15,24.58-42.74,44.64-55.93,4.55-3,9.75-5.26,13.2-9.48,7.07-8.64,4.12-21.54,7.36-32.22,1.95-6.42,6.25-12.71,4.76-19.25-3.06-13.41-25.69-12.85-30.43-25.76a25,25,0,0,0-3.42,15.45c-4.89,7.63-15.67,9.59-24.34,6.94s-15.72-8.86-22.47-14.9c-8.28-7.4-17-20-9.42-28.16,6.73-7.21,18.64-2,26.81,3.54l21.19,14.33c1.23,0.83,3.29-.11,4.38-1.11s1.28-.16,2.34-1.2a48.86,48.86,0,0,0,6.61-9c3.88,10.51,19,11.34,29.07,6.45s18.43-13.46,29.31-16.15,25.44,5.64,22.39,16.42c5.94,6.22,18.14,3.83,21.29-4.18,7.13,17.12,8.17,36.06,12.27,54.15s12.5,36.8,28.86,45.53c6.17-9.3,5.44-21.37,4.77-32.5A647.88,647.88,0,0,1,1733,592Zm-792.89,423.8-23.69-17.93c-3.18-2.41-6.4-4.85-8.84-8-7.2-9.25-6.67-23.06-14.59-31.7-1.8-2-4-3.62-5.25-6a17.89,17.89,0,0,1-1.55-6.81l-2.17-23.51c-0.54-5.82-1.17-11.92-4.47-16.74-2.82-4.12-7.26-6.81-10.69-10.44-6.37-6.73-8.86-16.23-14.19-23.8-6-8.58-15.68-14.65-19.71-24.34-2.3-5.54-2.55-11.84-5.37-17.13-2.13-4-5.63-7.22-7.34-11.42-2.1-5.15-1.19-11-1.06-16.52,0,0-2.09-27.61-8.08-22.22-3.29,13.27.85,27.12,4.95,40.16l15,47.78c3.65,11.6,7.31,23.24,12.38,34.29a291.94,291.94,0,0,0,14,25.84c10.81,18.43,21.65,36.9,34.46,54,3.33,4.44,6.79,8.79,10.33,13.07,14.11,17.06,30,33.5,50.3,42.44C963.51,1037.32,955.71,1030.5,948.63,1025.14ZM1565,1001a3.84,3.84,0,0,0-3-.19c-8.82,2.13-11.14,12.12-16.73,19.27l-0.82,1c-5.05,4.41-11.11,7.49-16.55,11.4s-10.48,9.06-12,15.58c-1.12,4.77-.27,9.9-1.75,14.57s-5.18,8.4-8.48,12.1a9.36,9.36,0,0,0-2.63,4.46c-0.58,3.52,3,6.61,6.59,6.8s6.88-1.68,9.83-3.67a89.29,89.29,0,0,0,36-49.88c2.39-8.63,3.58-17.9,8.71-25.24C1565.51,1005.28,1567,1002.28,1565,1001Z" transform="translate(-802.61 -239.67)" fill="#6b945a"/><path id="Ice" d="M1081,331.38a227.9,227.9,0,0,1,89.46-53.74l-46.71-5.33c4.47-6.63,12.88-9.15,20.65-11.09A771.37,771.37,0,0,1,1272,240.58c28.27-2.16,59.56-1.81,81.09,16.64-2.34,10.67-14.31,15.74-24.73,19-35.16,11-71,20.52-107.66,24.09-8.27.81-16.81,1.37-24.26,5.06-5.28,2.62-9.69,6.66-14.27,10.36a136.12,136.12,0,0,1-60.72,27.82c-12.8,2.33-26.22,2.91-37.88,8.69-8.53,4.23-15.56,11-23.91,15.55s-19.31,6.55-27,1a119.21,119.21,0,0,1,61.11-45.3m134.8-12.76a44.94,44.94,0,0,0-27.66,17.83c-1.89,2.65-3.42,6.47-1.29,8.93a7.27,7.27,0,0,0,4.52,2c10.21,1.59,20.53-1.21,30.58-3.63A432.73,432.73,0,0,1,1321,324.06c6-.21,12.21-0.33,17.67-2.85,3.23-1.49,6-3.75,9.09-5.59,16.82-10.19,38.08-6.65,57.71-5.49s42.94-2.63,51.83-20.17c-20.49-21.05-50.25-29.64-78.58-37.41-4.26-1.17-8.76-2.34-13-1.2-3.95,1.06-7.1,3.94-10.31,6.46-36.08,28.32-93.72,18.51-125.85,51.23Z" transform="translate(-802.61 -239.67)" fill="#fff"/></svg>